<svg width="1117" height="732" viewBox="0 0 1117 732" fill="none" xmlns="http://www.w3.org/2000/svg">
<rect width="1117" height="732" fill="#FF5555"/>
<path d="M391.612 526.17C386.542 526.17 382.33 525.429 378.976 523.947C375.622 522.465 373.126 520.905 371.488 519.267C369.928 517.551 369.148 516.537 369.148 516.225L372.073 511.662C372.073 511.896 372.814 512.793 374.296 514.353C375.778 515.835 377.923 517.239 380.731 518.565C383.617 519.813 387.127 520.437 391.261 520.437C396.175 520.437 400.036 519.033 402.844 516.225C405.652 513.339 407.056 509.79 407.056 505.578C407.056 502.692 406.354 500.274 404.95 498.324C403.546 496.374 401.791 494.814 399.685 493.644C397.657 492.474 394.888 491.148 391.378 489.666C387.322 488.028 384.046 486.468 381.55 484.986C379.054 483.504 376.948 481.476 375.232 478.902C373.516 476.25 372.658 472.896 372.658 468.84C372.658 462.444 374.686 457.374 378.742 453.63C382.798 449.808 388.219 447.897 395.005 447.897C398.359 447.897 401.362 448.404 404.014 449.418C406.744 450.354 408.928 451.407 410.566 452.577C412.204 453.669 413.023 454.293 413.023 454.449L411.853 459.597C411.853 459.441 411.073 458.817 409.513 457.725C407.953 456.633 405.964 455.619 403.546 454.683C401.128 453.747 398.437 453.279 395.473 453.279C391.105 453.279 387.673 454.488 385.177 456.906C382.681 459.324 381.433 462.6 381.433 466.734C381.433 469.62 382.096 472.038 383.422 473.988C384.826 475.86 386.542 477.381 388.57 478.551C390.676 479.721 393.445 481.008 396.877 482.412C401.011 484.128 404.326 485.766 406.822 487.326C409.318 488.808 411.424 490.914 413.14 493.644C414.934 496.374 415.831 499.884 415.831 504.174C415.831 508.464 414.817 512.286 412.789 515.64C410.839 518.916 408.031 521.49 404.365 523.362C400.699 525.234 396.448 526.17 391.612 526.17ZM430.132 466.5H437.152L438.205 473.52C439.297 471.804 441.169 470.01 443.821 468.138C446.473 466.266 450.139 465.33 454.819 465.33C461.683 465.33 467.143 467.865 471.199 472.935C475.333 478.005 477.4 485.064 477.4 494.112C477.4 503.94 475.333 511.74 471.199 517.512C467.065 523.284 461.215 526.17 453.649 526.17C450.451 526.17 447.721 525.78 445.459 525C443.275 524.142 441.598 523.245 440.428 522.309C439.258 521.295 438.673 520.71 438.673 520.554H438.556V554.25L430.132 554.484V466.5ZM450.841 520.554C456.925 520.554 461.371 518.409 464.179 514.119C466.987 509.751 468.391 503.16 468.391 494.346C468.391 486.156 466.987 480.228 464.179 476.562C461.371 472.896 457.315 471.063 452.011 471.063C449.203 471.063 446.785 471.648 444.757 472.818C442.729 473.988 441.169 475.275 440.077 476.679C439.063 478.005 438.556 478.785 438.556 479.019V515.406C439.414 516.498 440.818 517.629 442.768 518.799C444.796 519.969 447.487 520.554 450.841 520.554ZM502.512 526.17C497.364 526.17 493.23 524.922 490.11 522.426C486.99 519.852 485.43 516.303 485.43 511.779C485.43 500.313 496.467 493.41 518.541 491.07V484.869C518.541 479.331 517.644 475.548 515.85 473.52C514.056 471.492 510.897 470.478 506.373 470.478C504.345 470.478 502.278 470.868 500.172 471.648C498.066 472.35 496.272 473.13 494.79 473.988C493.386 474.768 492.489 475.275 492.099 475.509L491.163 470.712C491.553 470.4 492.528 469.815 494.088 468.957C495.726 468.099 497.754 467.28 500.172 466.5C502.668 465.72 505.164 465.33 507.66 465.33C514.368 465.33 519.282 466.734 522.402 469.542C525.522 472.35 527.082 477.303 527.082 484.401V513.066C527.082 516.186 527.355 518.292 527.901 519.384C528.525 520.476 529.266 521.022 530.124 521.022C530.826 521.022 531.684 520.905 532.698 520.671C533.712 520.359 534.375 520.125 534.687 519.969L535.038 523.947C534.414 524.181 533.088 524.61 531.06 525.234C529.032 525.858 527.316 526.17 525.912 526.17C523.884 526.17 522.324 525.546 521.232 524.298C520.14 522.972 519.477 520.671 519.243 517.395H519.126C519.126 517.707 518.502 518.604 517.254 520.086C516.006 521.568 514.134 522.972 511.638 524.298C509.22 525.546 506.178 526.17 502.512 526.17ZM505.086 521.022C507.894 521.022 510.312 520.398 512.34 519.15C514.368 517.902 515.889 516.537 516.903 515.055C517.995 513.573 518.541 512.715 518.541 512.481V495.399C511.443 496.179 505.593 497.7 500.991 499.962C496.467 502.224 494.205 505.812 494.205 510.726C494.205 514.08 495.18 516.654 497.13 518.448C499.08 520.164 501.732 521.022 505.086 521.022ZM567.044 526.17C558.932 526.17 552.692 523.674 548.324 518.682C543.956 513.69 541.772 506.241 541.772 496.335C541.772 486.351 543.917 478.707 548.207 473.403C552.575 468.021 558.932 465.33 567.278 465.33C570.008 465.33 572.582 465.72 575 466.5C577.418 467.202 579.446 468.021 581.084 468.957C582.8 469.815 583.658 470.283 583.658 470.361L582.605 475.158C582.293 474.924 581.435 474.456 580.031 473.754C578.705 472.974 576.95 472.233 574.766 471.531C572.66 470.829 570.476 470.478 568.214 470.478C562.208 470.478 557.801 472.467 554.993 476.445C552.185 480.423 550.781 487.014 550.781 496.218C550.781 505.11 552.263 511.467 555.227 515.289C558.191 519.111 562.364 521.022 567.746 521.022C570.788 521.022 573.362 520.476 575.468 519.384C577.652 518.292 579.329 517.161 580.499 515.991C581.669 514.743 582.254 514.002 582.254 513.768L585.998 516.225C585.998 516.537 585.296 517.551 583.892 519.267C582.488 520.905 580.382 522.465 577.574 523.947C574.766 525.429 571.256 526.17 567.044 526.17ZM616.518 526.17C608.406 526.17 602.166 523.674 597.798 518.682C593.43 513.69 591.246 506.241 591.246 496.335C591.246 486.351 593.391 478.707 597.681 473.403C602.049 468.021 608.406 465.33 616.752 465.33C619.482 465.33 622.056 465.72 624.474 466.5C626.892 467.202 628.92 468.021 630.558 468.957C632.274 469.815 633.132 470.283 633.132 470.361L632.079 475.158C631.767 474.924 630.909 474.456 629.505 473.754C628.179 472.974 626.424 472.233 624.24 471.531C622.134 470.829 619.95 470.478 617.688 470.478C611.682 470.478 607.275 472.467 604.467 476.445C601.659 480.423 600.255 487.014 600.255 496.218C600.255 505.11 601.737 511.467 604.701 515.289C607.665 519.111 611.838 521.022 617.22 521.022C620.262 521.022 622.836 520.476 624.942 519.384C627.126 518.292 628.803 517.161 629.973 515.991C631.143 514.743 631.728 514.002 631.728 513.768L635.472 516.225C635.472 516.537 634.77 517.551 633.366 519.267C631.962 520.905 629.856 522.465 627.048 523.947C624.24 525.429 620.73 526.17 616.518 526.17ZM657.217 526.17C652.069 526.17 647.935 524.922 644.815 522.426C641.695 519.852 640.135 516.303 640.135 511.779C640.135 500.313 651.172 493.41 673.246 491.07V484.869C673.246 479.331 672.349 475.548 670.555 473.52C668.761 471.492 665.602 470.478 661.078 470.478C659.05 470.478 656.983 470.868 654.877 471.648C652.771 472.35 650.977 473.13 649.495 473.988C648.091 474.768 647.194 475.275 646.804 475.509L645.868 470.712C646.258 470.4 647.233 469.815 648.793 468.957C650.431 468.099 652.459 467.28 654.877 466.5C657.373 465.72 659.869 465.33 662.365 465.33C669.073 465.33 673.987 466.734 677.107 469.542C680.227 472.35 681.787 477.303 681.787 484.401V513.066C681.787 516.186 682.06 518.292 682.606 519.384C683.23 520.476 683.971 521.022 684.829 521.022C685.531 521.022 686.389 520.905 687.403 520.671C688.417 520.359 689.08 520.125 689.392 519.969L689.743 523.947C689.119 524.181 687.793 524.61 685.765 525.234C683.737 525.858 682.021 526.17 680.617 526.17C678.589 526.17 677.029 525.546 675.937 524.298C674.845 522.972 674.182 520.671 673.948 517.395H673.831C673.831 517.707 673.207 518.604 671.959 520.086C670.711 521.568 668.839 522.972 666.343 524.298C663.925 525.546 660.883 526.17 657.217 526.17ZM659.791 521.022C662.599 521.022 665.017 520.398 667.045 519.15C669.073 517.902 670.594 516.537 671.608 515.055C672.7 513.573 673.246 512.715 673.246 512.481V495.399C666.148 496.179 660.298 497.7 655.696 499.962C651.172 502.224 648.91 505.812 648.91 510.726C648.91 514.08 649.885 516.654 651.835 518.448C653.785 520.164 656.437 521.022 659.791 521.022Z" fill="white"/>
<path d="M308 143H351L431 342.693V143H469V434.583H431L351 251.317V566H308V143Z" fill="white"/>
<path d="M622 146H857.5V187H760.5V553H712V187H622V146Z" fill="white"/>
<path d="M547.6 442.2C535.467 442.2 525.067 439.4 516.4 433.8C507.867 428.2 501.333 420.6 496.8 411C492.267 401.4 490 390.6 490 378.6V145H533.2V378.6C533.2 384.333 534.333 389.4 536.6 393.8C538.867 398.067 542.533 400.2 547.6 400.2C552.933 400.2 556.667 398.067 558.8 393.8C560.933 389.4 562 384.333 562 378.6V145H605.2V378.6C605.2 390.6 602.867 401.4 598.2 411C593.667 420.6 587.067 428.2 578.4 433.8C569.867 439.4 559.6 442.2 547.6 442.2Z" fill="white"/>
</svg>
